#!OML:ASF F:\VICON\USERDATA\INSTALL\rory3\rory3.ASF
:FULLY-SPECIFIED
:DEGREES
354
root 0.113828 16.155 15.5487 2.11641 4.91001 0.646892
lowerback 13.0836 0.613938 -5.7274
upperback -4.4867 -0.0707692 1.19922
thorax -12.3416 0.476093 4.58561
lowerneck -10.4917 -7.29625 -4.9505
upperneck 18.9001 -10.232 5.1638
head 8.10209 -4.74243 1.45498
rclavicle 1.20886e-014 9.54166e-015
rhumerus -33.0214 1.76299 -84.2624
rradius 28.4671
rwrist 4.30987
rhand -9.88374 20.4834
rfingers 7.12502
rthumb 16.0956 -8.86816
lclavicle 1.20886e-014 9.54166e-015
lhumerus -41.0224 10.3521 80.286
lradius 25.2492
lwrist -0.333478
lhand -4.51039 18.9935
lfingers 7.12502
lthumb 21.2638 47.8471
rfemur 4.13516 16.1845 26.6081
rtibia 15.3796
rfoot -18.1905 -15.1195
rtoes 15.549
lfemur -34.7538 -10.7632 -15.8869
ltibia 36.8502
lfoot -10.3171 5.18709
ltoes 1.61359
355
root 0.140491 16.1654 15.6825 2.28285 4.78592 0.690295
lowerback 12.9149 0.660104 -5.72152
upperback -4.53988 -0.00190313 1.16846
thorax -12.3094 0.506647 4.53034
lowerneck -10.561 -7.27076 -4.94264
upperneck 18.8983 -10.1902 5.14138
head 8.10999 -4.72266 1.44865
rclavicle 8.26199e-015 -8.94531e-016
rhumerus -32.9234 2.22173 -84.483
rradius 28.7477
rwrist 3.88063
rhand -9.63457 20.2999
rfingers 7.12502
rthumb 16.3355 -9.03214
lclavicle 8.26199e-015 -8.94531e-016
lhumerus -41.1486 10.4307 80.2059
lradius 25.0894
lwrist -0.447611
lhand -4.53153 18.8256
lfingers 7.12502
lthumb 21.2435 47.6814
rfemur 5.73739 16.3168 26.6041
rtibia 13.1959
rfoot -17.6652 -15.2815
rtoes 14.6323
lfemur -34.7752 -12.3952 -15.0119
ltibia 34.695
lfoot -10.5422 6.51489
ltoes -0.105429
356
root 0.166059 16.1698 15.8148 2.33979 4.53551 0.536473
lowerback 12.7789 0.733994 -5.58689
upperback -4.56333 0.13466 1.21321
thorax -12.2695 0.562023 4.47028
lowerneck -10.3716 -7.2386 -4.81206
upperneck 18.7086 -10.1442 5.04417
head 7.99769 -4.70823 1.41099
rclavicle -5.55355e-015 -1.5704e-014
rhumerus -32.9216 2.55418 -84.6615
rradius 29.1193
rwrist 3.59031
rhand -9.88453 20.1412
rfingers 7.12502
rthumb 16.0948 -9.21045
lclavicle -5.55355e-015 -1.5704e-014
lhumerus -41.2936 10.3897 80.2022
lradius 24.9931
lwrist -0.345475
lhand -4.63764 18.6783
lfingers 7.12502
lthumb 21.1415 47.5456
rfemur 7.51028 16.5342 26.8495
rtibia 10.8496
rfoot -17.0159 -15.4167
rtoes 13.6535
lfemur -34.7974 -14.058 -13.844
ltibia 32.7998
lfoot -10.8165 8.09816
ltoes 0.465825
357
root 0.1864 16.1756 15.9408 2.42555 4.35381 0.453665
lowerback 12.6856 0.780875 -5.56743
upperback -4.58717 0.208969 1.23602
thorax -12.2497 0.596675 4.46663
lowerneck -10.068 -7.22068 -4.75664
upperneck 18.5447 -10.1327 5.05599
head 7.88581 -4.70724 1.42077
rclavicle 1.11071e-014 -1.04362e-014
rhumerus -32.8831 3.0269 -84.9098
rradius 29.3859
rwrist 3.31442
rhand -10.6244 20.5028
rfingers 7.12502
rthumb 15.3823 -8.90496
lclavicle 1.11071e-014 -1.04362e-014
lhumerus -41.4321 10.4229 80.0936
lradius 24.9848
lwrist -0.421075
lhand -4.424 18.8326
lfingers 7.12502
lthumb 21.3468 47.6768
rfemur 9.34449 16.3955 26.9759
rtibia 8.26928
rfoot -16.1252 -15.305
rtoes 12.526
lfemur -34.9206 -15.6654 -12.7724
ltibia 31.1544
lfoot -11.2999 9.78605
ltoes 0.752896
358
root 0.215602 16.1794 16.072 2.58509 4.24763 0.548946
lowerback 12.5392 0.782747 -5.61569
upperback -4.59561 0.208867 1.21272
thorax -12.1714 0.596781 4.46697
lowerneck -10.1783 -7.26336 -4.85746
upperneck 18.6176 -10.1823 5.09428
head 7.94002 -4.73055 1.43848
rclavicle -6.22134e-015 -1.88845e-015
rhumerus -32.668 3.49202 -85.138
rradius 29.4288
rwrist 3.2318
rhand -10.3805 20.5091
rfingers 7.12502
rthumb 15.6172 -8.88046
lclavicle -6.22134e-015 -1.88845e-015
lhumerus -41.4836 10.6775 79.9886
lradius 24.8399
lwrist -0.656066
lhand -4.51769 19.1212
lfingers 7.12502
lthumb 21.2568 47.9756
rfemur 11.7156 16.19 26.8259
rtibia 4.71106
rfoot -14.7862 -15.3209
rtoes 10.7811
lfemur -35.0789 -17.2172 -11.9764
ltibia 29.8183
lfoot -12.335 11.2397
ltoes 3.02222
359
root 0.250841 16.178 16.2083 2.6849 3.96553 0.719299
lowerback 12.4789 0.85558 -5.73266
upperback -4.66546 0.281506 1.15041
thorax -12.2261 0.640608 4.44788
lowerneck -10.2363 -7.319 -4.83114
upperneck 18.7747 -10.2588 5.02707
head 8.00164 -4.76755 1.39974
rclavicle -3.5129e-015 -1.0138e-014
rhumerus -32.7149 3.73315 -85.3102
rradius 29.6596
rwrist 3.44053
rhand -9.77399 19.8765
rfingers 7.12502
rthumb 16.2013 -9.46651
lclavicle -3.5129e-015 -1.0138e-014
lhumerus -41.5664 10.8292 79.8366
lradius 24.4058
lwrist -0.704401
lhand -4.61801 18.7111
lfingers 7.12502
lthumb 21.1604 47.5763
rfemur 14.8174 16.1507 26.5865
rtibia -3.18055e-015
rfoot -12.9774 -15.3492
rtoes 8.45864
lfemur -35.1683 -18.7144 -11.2626
ltibia 28.7204
lfoot -12.9712 12.6679
ltoes 4.16025
360
root 0.282137 16.1726 16.3434 2.74842 3.69446 0.720548
lowerback 12.4046 0.937008 -5.73582
upperback -4.71052 0.392088 1.13105
thorax -12.2468 0.693909 4.40265
lowerneck -10.2777 -7.31871 -4.73331
upperneck 18.8996 -10.2721 4.97522
head 8.04309 -4.76901 1.36287
rclavicle 2.20527e-015 4.37326e-015
rhumerus -32.759 3.82364 -85.4482
rradius 29.825
rwrist 3.66222
rhand -9.80627 19.8636
rfingers 7.12502
rthumb 16.1702 -9.4819
lclavicle 2.20527e-015 4.37326e-015
lhumerus -41.6424 10.8186 79.7487
lradius 24.1306
lwrist -0.821991
lhand -4.58376 18.545
lfingers 7.12502
lthumb 21.1933 47.4065
rfemur 15.2702 16.102 26.5579
rtibia -3.81667e-014
rfoot -13.4412 -14.9858
rtoes 7.67048
lfemur -35.4173 -20.0159 -10.4032
ltibia 27.833
lfoot -13.2112 14.0556
ltoes 3.05001
361
root 0.310587 16.1643 16.4752 2.83659 3.42664 0.617972
lowerback 12.3245 1.00616 -5.65433
upperback -4.71639 0.505518 1.14176
thorax -12.2175 0.740851 4.34178
lowerneck -10.4076 -7.30799 -4.61838
upperneck 18.8811 -10.2631 4.93117
head 8.05104 -4.75836 1.32676
rclavicle 4.91371e-015 7.55382e-015
rhumerus -32.5778 4.09386 -85.6344
rradius 29.8771
rwrist 3.31028
rhand -9.85662 20.0818
rfingers 7.12502
rthumb 16.1217 -9.26769
lclavicle 4.91371e-015 7.55382e-015
lhumerus -41.6441 11.0007 79.5712
lradius 24.0301
lwrist -1.08548
lhand -4.42237 18.8502
lfingers 7.12502
lthumb 21.3483 47.6942
rfemur 15.6737 16.0542 26.6453
rtibia 2.22639e-014
rfoot -13.7339 -14.7271
rtoes 7.38137
lfemur -35.7254 -21.2667 -9.45497
ltibia 27.0969
lfoot -14.7435 15.3173
ltoes 4.01669
362
root 0.343831 16.1495 16.6063 2.88749 3.16572 0.617339
lowerback 12.3529 1.05731 -5.65192
upperback -4.7673 0.574852 1.16585
thorax -12.3023 0.778648 4.35165
lowerneck -10.3286 -7.30895 -4.75585
upperneck 18.8518 -10.2571 5.00999
head 8.03872 -4.76001 1.37806
rclavicle -2.6867e-015 -1.60022e-014
rhumerus -32.5615 4.43072 -85.7872
rradius 30.0622
rwrist 2.83538
rhand -9.58405 19.9998
rfingers 7.12502
rthumb 16.3842 -9.32818
lclavicle -2.6867e-015 -1.60022e-014
lhumerus -41.8657 11.0001 79.5381
lradius 23.9879
lwrist -1.05596
lhand -4.39448 19.2599
lfingers 7.12502
lthumb 21.3751 48.1009
rfemur 16.1651 15.9926 26.626
rtibia 1.27222e-014
rfoot -13.958 -14.614
rtoes 5.82142
lfemur -36.0203 -22.9201 -8.51445
ltibia 26.5267
lfoot -15.2559 16.8999
ltoes 3.14542
